<?xml version="1.0" encoding="UTF-8"?>
<svg version="1.1" xmlns="http://www.w3.org/2000/svg" width="180" height="180">
<path d="M0 0 C59.4 0 118.8 0 180 0 C180 59.4 180 118.8 180 180 C175.71 180 171.42 180 167 180 C166.67 128.52 166.34 77.04 166 24 C114.52 75.48 63.04 126.96 10 180 C5.55004949 177.77502475 3.39915309 175.55366005 0 172 C1.65662584 167.70971796 4.88656165 164.84150863 8.08694458 161.67254639 C8.71752049 161.04026162 9.34809641 160.40797686 9.99778068 159.75653195 C12.11505054 157.63596399 14.23939676 155.52263019 16.36376953 153.40917969 C17.88171613 151.89179714 19.39922266 150.37397425 20.9163208 148.85574341 C25.0397031 144.73178633 29.16923114 140.61403294 33.29986811 136.49734402 C37.6142758 132.19542278 41.92303577 127.88785257 46.23239136 123.58087158 C54.39524718 115.42423665 62.56318874 107.27271419 70.73295772 99.1230042 C81.77133332 88.11114429 92.80186023 77.09142841 103.8328228 66.07214355 C121.2154613 48.70832177 138.60858407 31.35504067 156 14 C104.52 13.67 53.04 13.34 0 13 C0 8.71 0 4.42 0 0 Z " fill="#F2F2F2" transform="translate(0,0)"/>
</svg>
